<svg width="22" height="20" viewBox="0 0 22 20" fill="none" xmlns="http://www.w3.org/2000/svg">
<path d="M21.02 9.46L11.63 0.459985C11.34 0.179985 10.89 0.179985 10.6 0.449985L0.989997 9.45C0.769997 9.66 0.689997 9.99 0.799997 10.27C0.909997 10.56 1.19 10.74 1.5 10.74H4.25V18.49C4.25 18.9 4.59 19.24 5 19.24H8.62C9.03 19.24 9.37 18.9 9.37 18.49V14.36C9.37 13.43 10.09 12.67 11 12.62H11.12C12.08 12.62 12.87 13.4 12.87 14.37V18.5C12.87 18.91 13.21 19.25 13.62 19.25H17C17.41 19.25 17.75 18.91 17.75 18.5V10.75H20.5C20.81 10.75 21.08 10.56 21.2 10.28C21.32 9.99999 21.24 9.67 21.02 9.46Z" fill="#F41724"/>
</svg>
